<?xml version="1.0" standalone="no"?>
<!DOCTYPE svg PUBLIC "-//W3C//DTD SVG 20010904//EN"
 "http://www.w3.org/TR/2001/REC-SVG-20010904/DTD/svg10.dtd">
<svg version="1.0" xmlns="http://www.w3.org/2000/svg"
 width="544.000000pt" height="434.000000pt" viewBox="0 0 544.000000 434.000000"
 preserveAspectRatio="xMidYMid meet">
<metadata>
Created by potrace 1.16, written by Peter Selinger 2001-2019
</metadata>
<g transform="translate(0.000000,434.000000) scale(0.100000,-0.100000)"
fill="#000000" stroke="none">
<path d="M0 2200 l0 -850 145 0 c90 0 145 -4 145 -10 0 -7 277 -10 810 -10
533 0 810 3 810 10 0 7 593 10 1760 10 l1760 0 0 850 0 850 -2715 0 -2715 0 0
-850z m968 78 l2 -288 290 0 290 0 5 -23 c4 -13 5 -48 3 -78 l-3 -54 -370 0
-370 0 -3 368 -2 368 77 -3 78 -3 3 -287z m1592 212 l0 -80 -290 0 -291 0 3
-62 3 -63 148 -3 147 -3 0 -79 0 -80 -150 0 -150 0 0 -65 0 -65 290 0 290 0 0
-80 0 -80 -367 2 -368 3 -3 355 c-1 195 0 361 3 367 3 10 86 13 370 13 l365 0
0 -80z m1024 74 c12 -5 16 -20 16 -64 0 -94 7 -90 -151 -90 l-139 0 -2 -287
-3 -288 -77 -3 -78 -3 0 291 0 290 -144 0 c-162 0 -156 -3 -156 80 0 87 -32
80 365 80 194 0 360 -3 369 -6z m464 -141 l3 -143 209 0 209 0 3 143 3 142 78
3 77 3 0 -371 0 -371 -77 3 -78 3 -3 143 -3 142 -209 0 -209 0 -3 -142 -3
-143 -77 -3 -78 -3 0 371 0 371 78 -3 77 -3 3 -142z"/>
</g>
</svg>
